<svg width="12" height="12" viewBox="0 0 12 12" fill="none" xmlns="http://www.w3.org/2000/svg">
<path d="M3.8245 10.455C3.8095 10.455 3.7895 10.465 3.7745 10.465C2.8045 9.985 2.0145 9.19 1.5295 8.22C1.5295 8.205 1.5395 8.185 1.5395 8.17C2.1495 8.35 2.7795 8.485 3.4045 8.59C3.5145 9.22 3.6445 9.845 3.8245 10.455ZM10.47 8.225C9.975 9.22 9.15 10.025 8.145 10.51C8.335 9.875 8.495 9.235 8.6 8.59C9.23 8.485 9.85 8.35 10.46 8.17C10.455 8.19 10.47 8.21 10.47 8.225ZM10.51 3.855C9.88 3.665 9.245 3.51 8.6 3.4C8.495 2.755 8.34 2.115 8.145 1.49C9.18 1.985 10.015 2.82 10.51 3.855ZM3.825 1.5445C3.645 2.1545 3.515 2.7745 3.41 3.4045C2.765 3.5045 2.125 3.6645 1.49 3.8545C1.975 2.8495 2.78 2.0245 3.775 1.5295C3.79 1.5295 3.81 1.5445 3.825 1.5445ZM7.746 3.295C6.586 3.165 5.416 3.165 4.256 3.295C4.381 2.61 4.541 1.925 4.766 1.265C4.776 1.225 4.771 1.195 4.776 1.155C5.171 1.06 5.576 1 6.001 1C6.421 1 6.831 1.06 7.221 1.155C7.226 1.195 7.226 1.225 7.236 1.265C7.461 1.93 7.621 2.61 7.746 3.295ZM3.295 7.746C2.605 7.621 1.925 7.461 1.265 7.236C1.225 7.226 1.195 7.231 1.155 7.226C1.06 6.831 1 6.426 1 6.001C1 5.581 1.06 5.171 1.155 4.781C1.195 4.776 1.225 4.776 1.265 4.766C1.93 4.546 2.605 4.381 3.295 4.256C3.17 5.416 3.17 6.586 3.295 7.746ZM11 6.001C11 6.426 10.94 6.831 10.845 7.226C10.805 7.231 10.775 7.226 10.735 7.236C10.07 7.456 9.39 7.621 8.705 7.746C8.835 6.586 8.835 5.416 8.705 4.256C9.39 4.381 10.075 4.541 10.735 4.766C10.775 4.776 10.805 4.781 10.845 4.781C10.94 5.176 11 5.581 11 6.001ZM7.746 8.705C7.621 9.395 7.461 10.075 7.236 10.735C7.226 10.775 7.226 10.805 7.221 10.845C6.831 10.94 6.421 11 6.001 11C5.576 11 5.171 10.94 4.776 10.845C4.771 10.805 4.776 10.775 4.766 10.735C4.54858 10.0711 4.37815 9.3928 4.256 8.705C4.836 8.77 5.416 8.815 6.001 8.815C6.586 8.815 7.171 8.77 7.746 8.705ZM7.8815 7.8815C6.63213 8.03927 5.36787 8.03927 4.1185 7.8815C3.96075 6.63213 3.96075 5.36787 4.1185 4.1185C5.36787 3.96075 6.63213 3.96075 7.8815 4.1185C8.03927 5.36787 8.03927 6.63213 7.8815 7.8815Z" fill="#212221"/>
</svg>
