<svg width="12" height="12" viewBox="0 0 12 12" fill="none" xmlns="http://www.w3.org/2000/svg">
<path fill-rule="evenodd" clip-rule="evenodd" d="M10.1889 4.25C9.20888 -0.0799987 2.79388 -0.0849988 1.80888 4.245C1.23388 6.785 2.81388 8.94 4.19388 10.27C4.67784 10.7368 5.324 10.9976 5.99638 10.9976C6.66876 10.9976 7.31492 10.7368 7.79888 10.27C9.18388 8.94 10.7639 6.79 10.1889 4.25ZM6.59644 6.59598C6.40717 6.67438 6.20432 6.71473 5.99945 6.71473C5.58572 6.71473 5.18892 6.55037 4.89637 6.25781C4.60381 5.96526 4.43945 5.56846 4.43945 5.15473C4.43945 4.74099 4.60381 4.3442 4.89637 4.05164C5.18892 3.75908 5.58572 3.59473 5.99945 3.59473C6.20432 3.59473 6.40717 3.63508 6.59644 3.71347C6.78571 3.79187 6.95768 3.90678 7.10254 4.05164C7.2474 4.1965 7.36231 4.36847 7.44071 4.55774C7.5191 4.74701 7.55945 4.94986 7.55945 5.15473C7.55945 5.35959 7.5191 5.56244 7.44071 5.75171C7.36231 5.94098 7.2474 6.11295 7.10254 6.25781C6.95768 6.40267 6.78571 6.51758 6.59644 6.59598Z" fill="#212221"/>
</svg>
