<svg width="120" height="120" viewBox="0 0 120 120" fill="none" xmlns="http://www.w3.org/2000/svg">
<rect width="120" height="120" rx="20" fill="#212221"/>
<path d="M71.5355 55.1377C72.9872 55.1377 74.1632 55.5805 75.0632 56.4661C75.9633 57.3371 76.4134 58.6002 76.4134 60.2552V67.2889H74.4535V60.5382C74.4535 59.3478 74.1559 58.4405 73.5607 57.8162C72.9655 57.1774 72.1525 56.8581 71.1218 56.8581C70.0765 56.8581 69.2417 57.1847 68.6175 57.838C68.0078 58.4913 67.7029 59.4422 67.7029 60.6907V67.2889H65.7213V55.3555H67.7029V57.054C68.0949 56.4443 68.6247 55.9725 69.2926 55.6386C69.9749 55.3047 70.7225 55.1377 71.5355 55.1377Z" fill="white"/>
<path d="M89.2319 60.8649C89.2319 61.2423 89.2101 61.6416 89.1666 62.0626H79.6286C79.7012 63.2385 80.1004 64.1604 80.8263 64.8282C81.5667 65.4814 82.4595 65.8081 83.5048 65.8081C84.3613 65.8081 85.0726 65.6121 85.6388 65.2201C86.2195 64.8136 86.626 64.2765 86.8583 63.6087H88.9924C88.673 64.7556 88.0342 65.6919 87.0761 66.4178C86.1179 67.1292 84.9275 67.4849 83.5048 67.4849C82.3724 67.4849 81.3562 67.2308 80.4561 66.7227C79.5705 66.2146 78.8737 65.496 78.3656 64.5668C77.8575 63.6232 77.6034 62.5344 77.6034 61.3004C77.6034 60.0664 77.8502 58.9849 78.3438 58.0558C78.8374 57.1266 79.527 56.4153 80.4125 55.9217C81.3126 55.4136 82.3434 55.1595 83.5048 55.1595C84.6371 55.1595 85.6388 55.4063 86.5099 55.8999C87.3809 56.3935 88.0487 57.0758 88.5133 57.9469C88.9924 58.8034 89.2319 59.7761 89.2319 60.8649ZM87.1849 60.4511C87.1849 59.6962 87.018 59.0502 86.6841 58.5131C86.3502 57.9614 85.8929 57.5476 85.3122 57.2718C84.746 56.9815 84.1145 56.8363 83.4177 56.8363C82.416 56.8363 81.5594 57.1557 80.8481 57.7944C80.1512 58.4332 79.752 59.3188 79.6504 60.4511H87.1849Z" fill="white"/>
<path d="M95.7455 67.4849C94.6277 67.4849 93.6115 67.2308 92.6969 66.7227C91.7968 66.2146 91.0854 65.496 90.5628 64.5668C90.0547 63.6232 89.8006 62.5344 89.8006 61.3004C89.8006 60.0809 90.062 59.0066 90.5846 58.0775C91.1217 57.1339 91.8476 56.4153 92.7622 55.9217C93.6768 55.4136 94.7003 55.1595 95.8327 55.1595C96.965 55.1595 97.9885 55.4136 98.9031 55.9217C99.8177 56.4153 100.536 57.1266 101.059 58.0558C101.596 58.9849 101.865 60.0664 101.865 61.3004C101.865 62.5344 101.589 63.6232 101.037 64.5668C100.5 65.496 99.7669 66.2146 98.8378 66.7227C97.9086 67.2308 96.8779 67.4849 95.7455 67.4849ZM95.7455 65.7428C96.4569 65.7428 97.1247 65.5758 97.749 65.2419C98.3732 64.908 98.8741 64.4072 99.2515 63.7393C99.6435 63.0715 99.8395 62.2586 99.8395 61.3004C99.8395 60.3423 99.6507 59.5293 99.2733 58.8615C98.8958 58.1937 98.4022 57.7001 97.7925 57.3807C97.1828 57.0468 96.5222 56.8798 95.8109 56.8798C95.085 56.8798 94.4172 57.0468 93.8075 57.3807C93.2122 57.7001 92.7332 58.1937 92.3702 58.8615C92.0073 59.5293 91.8258 60.3423 91.8258 61.3004C91.8258 62.2731 92 63.0933 92.3485 63.7611C92.7114 64.4289 93.1905 64.9298 93.7857 65.2637C94.3809 65.5831 95.0342 65.7428 95.7455 65.7428Z" fill="white"/>
<rect x="42.8889" y="61.5199" width="3.11111" height="5.76892" fill="white"/>
<path fill-rule="evenodd" clip-rule="evenodd" d="M42.2533 63.1542C41.7398 63.7791 40.9609 64.1778 40.0889 64.1778C38.5425 64.1778 37.2889 62.9242 37.2889 61.3778C37.2889 59.8314 38.5425 58.5778 40.0889 58.5778C41.6353 58.5778 42.8889 59.8314 42.8889 61.3778C42.8889 61.381 42.8889 61.3842 42.8889 61.3875H42.8889V66.5849C44.7412 65.5869 46 63.6293 46 61.3778C46 58.1131 43.3535 55.4666 40.0889 55.4666C36.8243 55.4666 34.1778 58.1131 34.1778 61.3778C34.1778 64.6424 36.8243 67.2889 40.0889 67.2889C40.8529 67.2889 41.583 67.1439 42.2533 66.8801V63.1542Z" fill="white"/>
<path d="M46.7085 67.2889H49.8196V60.3072C49.8196 59.2762 50.6553 58.4405 51.6863 58.4405H57.8205V55.4666H51.0641C48.6585 55.4666 46.7085 57.4167 46.7085 59.8222V67.2889Z" fill="white"/>
<path fill-rule="evenodd" clip-rule="evenodd" d="M61.07 62.1449C60.7365 63.3183 59.6568 64.1778 58.3764 64.1778C56.83 64.1778 55.5764 62.9242 55.5764 61.3778C55.5764 59.8314 56.83 58.5778 58.3764 58.5778C59.7478 58.5778 60.889 59.5637 61.1296 60.8655H64.2656C64.006 57.8407 61.4684 55.4666 58.3764 55.4666C55.1118 55.4666 52.4653 58.1131 52.4653 61.3778C52.4653 64.6424 55.1118 67.2889 58.3764 67.2889C61.381 67.2889 63.8621 65.0471 64.2382 62.1449H61.07Z" fill="white"/>
<path fill-rule="evenodd" clip-rule="evenodd" d="M22.3556 55.2C20.6373 55.2 19.2444 56.5929 19.2444 58.3111V62.4433L22.2835 59.3932C23.9813 57.6891 26.734 57.6891 28.4319 59.3932L31.6889 62.6621V58.3111C31.6889 56.5929 30.296 55.2 28.5778 55.2H22.3556ZM31.1513 66.282L26.7708 61.8855C26.0432 61.1552 24.8634 61.1552 24.1358 61.8855L19.7712 66.266C20.3297 67.0974 21.2787 67.6444 22.3556 67.6444H28.5778C29.6477 67.6444 30.5914 67.1044 31.1513 66.282Z" fill="white"/>
</svg>
