<svg width="18" height="18" viewBox="0 0 18 18" fill="none" xmlns="http://www.w3.org/2000/svg">
<rect width="18" height="18" rx="9" fill="#212221"/>
<path d="M12.5997 9.33476V11.8168H11.1468V9.4861C11.1468 8.91099 10.9349 8.51749 10.4203 8.51749C10.0268 8.51749 9.78465 8.78992 9.69384 9.03207C9.66357 9.12288 9.6333 9.24395 9.6333 9.3953V11.8168H8.18039C8.18039 11.8168 8.21066 7.88184 8.18039 7.48835H9.6333V8.09373C9.81492 7.79104 10.1781 7.36727 10.9349 7.36727C11.8732 7.36727 12.5997 8.00292 12.5997 9.33476ZM6.66693 5.39978C6.18263 5.39978 5.84967 5.73274 5.84967 6.15651C5.84967 6.58027 6.15236 6.91323 6.63667 6.91323C7.15124 6.91323 7.45393 6.58027 7.45393 6.15651C7.4842 5.70247 7.18151 5.39978 6.66693 5.39978ZM5.94048 11.8168H7.39339V7.48835H5.94048V11.8168Z" fill="white"/>
</svg>
